<?xml version="1.0" encoding="UTF-8" standalone="no"?>
<svg
   version="1.0"
   width="255.99998pt"
   height="256pt"
   viewBox="0 0 255.99998 256"
   preserveAspectRatio="xMidYMid"
   id="svg6"
   sodipodi:docname="favicon.svg"
   xmlns:inkscape="http://www.inkscape.org/namespaces/inkscape"
   xmlns:sodipodi="http://sodipodi.sourceforge.net/DTD/sodipodi-0.dtd"
   xmlns="http://www.w3.org/2000/svg"
   xmlns:svg="http://www.w3.org/2000/svg">
  <defs
     id="defs10" />
  <sodipodi:namedview
     id="namedview8"
     pagecolor="#ffffff"
     bordercolor="#000000"
     borderopacity="0.25"
     inkscape:showpageshadow="2"
     inkscape:pageopacity="0.0"
     inkscape:pagecheckerboard="0"
     inkscape:deskcolor="#d1d1d1"
     inkscape:document-units="pt"
     showgrid="false" />
  <g
     transform="matrix(0.1,0,0,-0.1,0,256)"
     fill="#000000"
     stroke="none"
     id="g4"
     style="fill:#5533eb;fill-opacity:0.99">
    <g
       id="g4342"
       transform="translate(1660,-246.89555)">
      <rect
         style="fill:#ffffff;fill-opacity:0.99;stroke-width:149.926"
         id="rect2351"
         width="1341.3174"
         height="1688.7823"
         x="-1082.5695"
         y="-2309.6208"
         ry="536.25055"
         transform="scale(1,-1)" />
      <path
         d="M -1660,1526.8956 V 246.89555 H -380 899.99996 v 1280.00005 1280 H -380 -1660 Z m 1490,684 c 56,-14 239,-94 279,-122 11,-8 2,-31 -45,-116 -31,-58 -61,-106 -64,-106 -4,0 -34,16 -65.999998,35 -171.000002,103 -393.000002,122 -481.000002,41 -29,-27 -36,-41 -40,-82 -11,-107 31,-137 289,-209 200.000002,-57 310,-107 373,-170 73,-73 90,-119 90,-250 0,-100 -3,-116 -29,-172 -84,-182.00005 -322,-273.00005 -612,-232.00005 -146,20 -304,75 -406,140 l -47,31 57,114.00005 c 31,63 60,114 65,114 5,0 23,-11 40,-24 168,-126 484,-176 598,-95 55,39 62,133 13,182 -37,37 -92,60 -280,118 -213,65 -301,106 -359,171 -61,68 -78,125 -73,247 3,85 8,106 36,164 57,114 179,201 330,232 82,18 240,12 332,-11 z"
         id="path2"
         style="fill:#5533eb;fill-opacity:1" />
    </g>
  </g>
</svg>
